<svg width="340" height="440" xmlns="http://www.w3.org/2000/svg">
  <!-- Background -->
  <rect width="340" height="440" fill="#F9FAFB"/>

  <!-- Border -->
  <rect x="0.5" y="0.5" width="339" height="439" fill="none" stroke="#E5E7EB" stroke-width="1"/>

  <!-- Title area -->
  <rect x="0" y="0" width="340" height="80" fill="#F59E0B" opacity="0.05"/>
  <text x="170" y="35" font-family="system-ui, -apple-system, sans-serif" font-size="16" fill="#111827" text-anchor="middle" font-weight="600">
    Timeline
  </text>
  <text x="170" y="55" font-family="system-ui, -apple-system, sans-serif" font-size="11" fill="#6B7280" text-anchor="middle">
    Career progression focus
  </text>

  <!-- Resume mockup content -->
  <g transform="translate(30, 100)">
    <!-- Header section -->
    <rect x="0" y="0" width="280" height="50" fill="#F59E0B" opacity="0.1" rx="4"/>
    <text x="10" y="22" font-size="12" fill="#111827" font-weight="600">JANE ANDERSON</text>
    <text x="10" y="38" font-size="9" fill="#6B7280">Product Designer • San Francisco, CA</text>

    <!-- Section 1 -->
    <text x="0" y="75" font-size="10" fill="#F59E0B" font-weight="600">EXPERIENCE</text>
    <line x1="0" y1="80" x2="280" y2="80" stroke="#E5E7EB" stroke-width="1"/>

    <rect x="0" y="90" width="200" height="6" fill="#D1D5DB" rx="2"/>
    <rect x="0" y="100" width="180" height="4" fill="#E5E7EB" rx="1"/>
    <rect x="0" y="108" width="240" height="4" fill="#E5E7EB" rx="1"/>
    <rect x="0" y="116" width="220" height="4" fill="#E5E7EB" rx="1"/>

    <rect x="0" y="130" width="200" height="6" fill="#D1D5DB" rx="2"/>
    <rect x="0" y="140" width="190" height="4" fill="#E5E7EB" rx="1"/>
    <rect x="0" y="148" width="230" height="4" fill="#E5E7EB" rx="1"/>

    <!-- Section 2 -->
    <text x="0" y="180" font-size="10" fill="#F59E0B" font-weight="600">EDUCATION</text>
    <line x1="0" y1="185" x2="280" y2="185" stroke="#E5E7EB" stroke-width="1"/>

    <rect x="0" y="195" width="180" height="6" fill="#D1D5DB" rx="2"/>
    <rect x="0" y="205" width="160" height="4" fill="#E5E7EB" rx="1"/>

    <!-- Section 3 -->
    <text x="0" y="235" font-size="10" fill="#F59E0B" font-weight="600">SKILLS</text>
    <line x1="0" y1="240" x2="280" y2="240" stroke="#E5E7EB" stroke-width="1"/>

    <g transform="translate(0, 250)">
      <rect x="0" y="0" width="60" height="18" fill="#F59E0B" opacity="0.15" rx="9"/>
      <rect x="65" y="0" width="75" height="18" fill="#F59E0B" opacity="0.15" rx="9"/>
      <rect x="145" y="0" width="55" height="18" fill="#F59E0B" opacity="0.15" rx="9"/>
      <rect x="0" y="23" width="70" height="18" fill="#F59E0B" opacity="0.15" rx="9"/>
      <rect x="75" y="23" width="65" height="18" fill="#F59E0B" opacity="0.15" rx="9"/>
    </g>
  </g>

  <!-- Watermark -->
  <text x="170" y="425" font-family="system-ui, -apple-system, sans-serif" font-size="8" fill="#9CA3AF" text-anchor="middle" opacity="0.5">
    Template Preview
  </text>
</svg>